<svg id="eAim7uhOnXP1" xmlns="http://www.w3.org/2000/svg" xmlns:xlink="http://www.w3.org/1999/xlink" viewBox="0 0 30 30" shape-rendering="geometricPrecision" text-rendering="geometricPrecision"><path d="M2.05892,14.94175c0-5.35838,5.70196-5.53018,9.4209-3.2416c1.57403.96864,1.9962,3.11279,3.3429,4.3559.73446.67797,1.91952.81094,2.88705.7091c1.8013-.18961,3.76471-1.17021,4.8624-2.6338.77565-1.0342,1.3556-3.69962,3.039-3.39355c2.17713.39584,3.2887,3.28776,3.1403,5.21695-.44871,5.8332-10.49875,7.73525-14.0807,4.1533-2.15962-2.15962-4.08527-7.00514-7.54685-7.2936-3.16342-.26362-1.67126,4.16439-3.1403,5.4702-1.50308,1.33607-2.97052.11555-3.08965-1.67145-.14406-2.16095,1.29443-3.59248,2.3299-5.31825" fill="none" stroke="#3f5787" stroke-width="0.5"/><path d="M1.20773,16.61222c-.80334-4.01671,4.4154-5.92302,7.60263-5.63327c3.97614.36147,4.48347,6.21523,9.1598,6.54925c3.21213.22944,4.69888-3.41651,6.54926-5.26688c2.17207-2.17206,3.70838,2.96748,3.38912,4.3509-.45161,1.95699-3.0153,3.51082-4.80889,3.84711-3.65961.68618-6.49895-.06464-9.48039-2.74794-2.36716-2.13044-3.28477-5.12821-6.96144-5.49588-3.64615-.36461-1.1209,5.1124-2.93113,5.77067-3.11125,1.13137-2.2903-2.96213-2.19835-2.83954" fill="none" stroke="#3f5787" stroke-width="0.5"/><path d="M7.52799,10.61255c-.41069.05867-4.46106,1.22048-4.21351,1.28237.57761.1444,2.24415-.68698,1.64876-.68698-.42225,0-1.65882.27479-1.23657.27479.31472,0,1.04476-.62826.87018-.36639-.20077.30116-1.46114,1.57391-1.92356,1.41977-1.05646-.35215,4.04474-1.60296,2.93114-1.60296-.46706,0-1.70423.60506-1.37397.27479.33255-.33255,1.04142.01195,1.37397-.32059.48276-.48276,2.69789-.36639,2.01516-.36639-.1552,0-1.65905.11218-1.74036.27479-.164.328,1.46588.0458,1.09917.0458-.42855,0-1.5854-.21143-1.28237.0916.60257.60257,1.88097-.34743,1.55716-.41219-.67895-.13579-2.55582.07126-2.01515.50379.23872.19097.69981.17037.91598-.0458.06586-.06586-1.45412.66027-1.92356.50379-.51368-.17123,1.51137-.05392,1.51137-.59539c0-.1072-1.89961.32059-2.01515.32059-.31877,0,.91598-.59356.91598-.27479c0,.449-1.51958.93624-1.09917.77858.30052-.1127.72664-.69926.87018-.41219.16057.32114-1.54537.68305-1.14497.54959.70071-.23357,2.7981-.78294,3.29753-1.28237.51148-.51148-1.43171.21472-2.15255.27479-.4028.03357,1.09274-.62112,1.19077-.229.1094.4376-1.68764.54959-1.23657.54959.44909,0,2.56474-.41219,2.56474-.41219s1.4045,0,1.05338,0c-.10582,0-.97069.08269-1.05338,0-.23773-.23773.67137-.0458,1.00758-.0458.57223,0-1.13156.17243-1.69456.27479-1.41994.25817-3.39552,1.1468-3.06853,1.05338" transform="translate(.000001 0)" fill="none" stroke="#3f5787" stroke-width="0.5"/><path d="M2.26111,14.32227c1.41815,4.96352-1.38544,1.52284,1.09918-.96178.83624-.83624.23649,4.2195-.68698,3.48072-.5932-.47456.30264-2.87544-.0916-3.66392-.40333-.80666.76448,2.70214-.1374,2.70214-.44177,0-.39458-1.37397-.54959-1.37397-.56485,0,0,2.25942,0,1.69456c0-.41669-.31496-1.63188-.1832-1.23657.20531.61594.73738,2.31966.54959,2.97693-.29448,1.03067-1.61229-2.82116-.59539-3.16013.44733-.14911.31878,1.53114.68699,1.23657.04914-.03932-.06275-1.54132.27479-.64119.28591.76244,1.05775,2.65105.27479,2.42735-.7427-.2122-.73278-2.97077-.73278-2.19835c0,1.30284-.06944,3.28394,1.00758,3.06853.77471-.15494-.78287-.14597-.73278-.0458.12356.24712.99145-.09288.87018-.27479-.30906-.46359-2.04274.11918-1.64876-.27479.28067-.28067,1.33733.77553,1.09918.45799-.65952-.87937-1.28337.36659.0916.0916.49254-.09851.38489-2.48305.45799-2.79374.12636-.53704.3283-2.14825.41219-1.60296.09385.61002.2426,3.24855-.27479,3.61812-.25092.17923-.51981-3.25493.1832-3.11433.59315.11863.05007,2.3272.32059,1.78616.14402-.28804-.08704-1.22974.0916-.96178.18659.27988.25503,2.1167.0916,1.92356-.29666-.35059-.57178-1.73894-.36639-1.32817.17803.35607.3731,1.47227.0916,1.19077-.19093-.19093-.14343-1.67317-.0458-1.64876.43357.10839.45134,1.6857.18319,1.32817-.13433-.17911-.37051-1.74036-.27479-1.74036.12885,0,.46681,1.517.36639,1.55717-.68405.27362-.74995-2.71931-.22899-2.19835.26459.26459.02274,2.88533-.1374,2.88533-.65057,0-.22899-2.38481-.22899-2.74794c0-.30874.17135.91598-.1374.91598-.3238,0,.08609-1.70007-.0916-1.87776-.3015-.3015-1.77666,1.28237-1.92356,1.28237-.62914,0,.8927-.98173.91598-.96178.11228.09624.10436,1.23657.0916,1.23657-.45422,0-.22558-.82267-.41219-.91598-.27648-.13824-.10201,1.08876-.32059.87018-.79685-.79685,1.2704-1.86397,1.96936-2.74794.1952-.24687.51258-1.03642.59539-.73278.19485.71444-.08698,2.73081-.54959,2.15255-.31486-.39357.2712-1.96218.0458-1.51137-.06295.1259-.50095,1.58077-.59539,1.55717-.34064-.08516.17421-1.35824,0-1.05338-.01854.03244-.48797,1.57809-.32059,1.55717.78453-.09807,1.07323-1.74533,1.60296-1.87776.86258-.21564,1.01395,3.40824.73278,2.56474-.18345-.55035-.51888-1.48092,0-1.74036.03583-.01792,1.06094-1.19876,1.09918-1.00758.03093.15467-.89844.86238-.96178.82438-.18186-.10912.32059-.76167.32059-.54959c0,.17699-.9516,1.1331-1.05338,1.09918-.38862-.12954.29369-1.41905.54959-1.09918.05508.06885.20036,1.26376-.45799,1.09918-.10493-.02623,1.0506-1.39037,1.37397-1.41977.64441-.05858-.31066.79457-.27479.68699.13186-.39557,1.56194-.50379,1.14497-.50379-.29166,0-.66394.29784-.87018.0916-.25591-.25591,1.29443-.36122.96178-.50379-.83746-.35891-2.70214,1.32332-2.70214.41219c0-.14774.76617-.72859.87018-.68698.10993.04397-1.65531,3.24845-2.01515,3.06853-.334-.167.02048-2.19835.36639-2.19835.85505,0,.0458,3.41979.0458,2.56474c0-.61891-.10514-1.93066.32059-2.42735.32921-.38408-.22031,1.86907.1374,1.51137.66758-.66758.1832-.20406.1832,1.19077c0,.67189-.4293-2.49025.0458-2.01515.48685.48685.51931,2.63383.1374,2.06095-.44142-.66213-.4589-2.26388-.229-3.06853.13531-.47357-1.13921,2.79566-1.41977,2.70214-.69578-.23193-.6102-2.71696-.0916-2.19835.12481.12481-.47734,2.57797.1374,2.88534.42395.21198-.05756-1.58595.36639-1.37397.64582.32291.59335,2.82323.50379,2.10675-.04768-.38143.03451-1.48879-.1374-1.14498-.19116.38233.42746,1.28237,0,1.28237-.69776,0-.36639-2.75871-.36639-2.06095c0,.72011.50524,2.79664.1832,2.15255-.22039-.44077-.22917-1.87732-.41219-1.41977-.21009.52522.38264,2.17963.0916,1.69456-.21568-.35946-.09643-1.63426-.229-1.23657-.19049.57148.57832,2.30649.27479,1.78616-.1687-.28921-.08737-.83477-.41219-.91598-.52006-.13001-.59812-2.04523-.54959-1.51137.05006.5507.64329,1.9555.1832,1.64876-.17647-.11764-.75079-.38766-.54959-.32059.61052.20351,1.96296.114,1.78616.73278-.06827.23896-.75231.54959-.50379.54959c1.27543,0,.22442-1.35109.41219-2.28995.02752-.1376,1.41606-3.57603,1.37397-3.61812-.62945-.62945-3.18012,1.37397-2.28995,1.37397.79934,0,3.4088-2.12417,4.12191-1.64876.00466.00311-.64071.53464-.68698.50379-.30591-.20394.58901-.45034.82438-.73278.37459-.4495-2.21791.71966-1.69456.45799" transform="translate(0 0.000001)" fill="none" stroke="#3f5787" stroke-width="0.5"/><path d="M9.45155,12.16972c.10846.13015,1.30883,1.88743,1.32817,1.87776.74036-.37018-3.38913-3.1669-3.38913-2.06095c0,.44509,1.35885.93175,1.23657.50379-.17241-.60345-2.41375-.59539-1.78616-.59539c1.47278,0,2.07358.8307.41219,0-.38452-.19226,1.47504-.00869,1.23657-.36639-.33124-.49686-2.09339-.37465-1.78616.1374.31457.52429,2.412.28494,1.83196.0916-1.65239-.5508,1.37035,1.06161,1.96936.96178.16972-.02829-.54959-.77858-.54959-.77858s1.0215,1.71252,1.28237,1.19077c.03489-.06977-.46541-.72907-.45799-.73278.27417-.13709,1.40677.87668,1.60296.77858.31435-.15718-.24537-.902-.59539-.87018-1.08245.0984.9391,4.23707.59539,3.20593-.18163-.5449-.64914-1.29061-.91598-1.78616-.14566-.27051-.41219-1.13161-.41219-.82438c0,.52107.82438,1.84924.82438,1.32817c0-.27729-1.32584-1.69573-1.41977-1.64876-.44764.22382.64119,1.15629.64119,1.41977c0,.62648-.93098-1.72536-1.37397-1.28237-.19049.19049.6565,1.1246.87018,1.05338.39689-.1323-1.33023-1.21811-1.00758-1.41977.40465-.2529,1.57067.63589,1.41977.18319-.28873-.86619-3.21036-1.6074-2.56474-.96178c1.16166,1.16166.33589-.89564-.59539-.27479-.07512.05008,1.14497.46357,1.14497.36639c0-.64571-2.54443-.40639-1.92356-.229c2.39407.68402,2.44753-.09552,2.42735.0458-.08703.60922,1.78315,1.68587,1.28237,1.32817-.11345-.08104-1.15149-1.05012-1.32817-.96178-.38645.19323,1.07344,1.2924.68699,1.09918-.12676-.06338-.76196-.92429-.96178-.82438-.33724.16862.68684,1.32757.59539.96178-.08963-.35852-1.23974-.68698-.87018-.68698.72353,0,2.64301,2.43401,3.11433,2.19835.41686-.20843-.95912-1.59818-.73278-1.19077.58318,1.04973,1.40868,1.85283,2.28995,2.65634.32793.299,1.00758,1.31396,1.00758.87018c0-.48181-2.33204-3.02644-2.10675-3.25173.55044-.55044,1.90529,2.43661,1.55716,1.74036-.09797-.19594-1.57789-1.9386-1.60296-1.92356-.69121.41473,1.36807,2.91934,1.00758,2.19835-.36358-.72717-1.46375-2.82318-1.37397-2.01515.10028.9025,1.82753,3.11679,1.23657,2.42735-.18544-.21634-2.42039-2.6175-2.51894-2.51894-.63259.63259,1.60296,3.04716,1.60296,2.15255c0-.47153-.68698-1.7081-.68698-1.23657c0,.41663,1.74036,2.65634,1.74036,2.65634s-1.92356-4.3933-1.92356-3.16013c0,.50606,1.10335,1.68874,1.51137,2.01516.66245.52996-.52359-1.81896-1.28237-2.19835-.58333-.29166,1.51454,2.10992,1.05338,1.64876-.68285-.68285-.76208-1.90706-1.41977-2.56474-.50007-.50007,1.26124,2.48375,1.14498,1.78616-.07533-.45201-.68698-1.64902-.68698-1.19077c0,.5946,1.38005,1.86308.87018,1.55716-.14792-.08875-1.93583-1.63035-2.01515-1.51137-.46598.69898.82438,3.22161.82438,2.38155c0-.62965-.91852-1.97593.22899-.73278.61582.66714,1.26186,1.30214,1.87776,1.96936.24174.26188.73278,1.13498.73278.77858c0-.64949-1.42104-2.15382-.96178-1.69456.38166.38166,1.31566,1.65702,1.14498,1.14497-.2829-.8487-2.40313-2.55263-1.60296-2.15255.89164.44582,2.62846,1.58505,1.92356,2.28995-.14788.14788-.77858-1.05338-.77858-1.05338s2.7517,2.96566,2.93113,2.42735c.07481-.22443-1.18771-.97098-1.19077-.96178-.19664.58993,2.77095,1.09848,2.79374.96178.17894-1.07364-3.82912-1.54021-4.21351-1.60297-.32209-.05259-1.19255-.41397-.96178-.1832.27268.27268,2.53674.97578,2.74794.87018.35898-.17949-.60173-.72188-.59539-.68698.18558,1.0207,2.61054,2.732,2.61054,1.69456c0-.19905-.70284-.32059-.50379-.32059c1.3588,0,2.47948-.06551,3.84711-.36639.31593-.06951,1.23884-.30041.91598-.32059-1.23534-.07721-2.61885.85908-3.75552.73278-.63527-.07059.95608-.8506,1.46557-1.23657.14764-.11185,1.69821-1.51572,1.83196-1.46557.70522.26446-.11513,2.64271-.68698,2.15255-.66515-.57013.38811-3.04681,1.00758-2.42735.32732.32732-.1385,2.98811-.1832,2.97693-.58222-.14555,1.68287-4.99209,2.10675-4.99209.09845,0,.0458,1.67686.0458,1.83196c0,.68715.59221,1.80575-.0458,2.06095-.36093.14437.16836-3.46525.27479-3.75552.08699-.23726.2593-.93214.32059-.68698.14939.59756-1.15498,3.304-1.23657,3.52652-.12303.33553-.08733,1.23083-.36639,1.00758-.73036-.58429.62863-4.2593,1.09918-4.2593.52641,0-.24598,1.02953-.45799,1.51137-.28372.64482-.75626,1.94257-1.23657,2.51894-.35669.42803.03574-1.14549.27479-1.64876.27974-.58893.98531-1.93701,1.60297-2.28995.58697-.33541.229,1.33911.229,2.01516c0,.07202.1465,2.04268-.1832,2.28995-.13662.10246.39186-5.41783.82438-5.12949.23904.15936.229,3.93871.229,3.93871s-.15608-4.41941.1374-3.34333c.28384,1.04073.0916,2.39979.0916,3.48072c0,.30571-.03731-.61039-.0458-.91598-.01106-.39817.25836-3.70337.73278-2.56474.39498.94794.76421,4.0357.59539,3.02273-.13622-.81731.24454-1.32976-.32059-.50379-.13343.19501-4.20429,3.54526-4.25931,3.16013-.14033-.98234,3.08322-2.48783,2.38155-1.78616-.71021.71021-3.82937,2.60119-4.76309,2.28995-.80181-.26727,2.2426-.0365,2.38155-.87018.0343-.20581-4.4425.07986-4.4425.59539c0,.00711,3.26383-.83386,3.25173-.87018-.13008-.39023-2.1662.36639-2.42735.36639-.55507,0,1.48862-.31939,1.41977-.87018-.15532-1.24254-4.69143-.74033-3.75552.0916.64151.57023,3.41138.3701,2.56474.229-.42746-.07124-1.67311-.17834-1.96936.22899-.3268.44935,1.9318.72454,2.19835.45799.03288-.03288-.96178-.3341-.96178.0458c0,.60024,2.10297.82817,2.33575.59539.04603-.04603-1.70361.35049-1.28237.82438.44701.50288,2.57881-.47819,2.79374-.96178.33283-.74886-2.87921-.19888-2.01515,1.28237.52031.89196,2.18729-1.53032,1.69456-1.69456-.83845-.27948,2.31596,1.33439,1.23657-.82438-.04151-.08301-1.12562,1.39569-.77858,1.51137.23948.07983,1.28417-1.28057,1.05338-1.51137-.08234-.08234-1.20771,1.51367-.96178,1.92356.07981.13302,1.581-3.25173.91598-3.25173-1.05027,0-2.56844,3.23893-1.69456,2.65634.38167-.25445,2.239-2.9119,1.96936-3.34332-.26905-.43048-3.46153,2.71174-2.83954,3.02273.28225.14112,1.17953-.8296,1.05338-1.14498-.24561-.61402-5.44049-.00959-5.81647.36639-.04754.04754,3.94126,2.53802,4.25931,2.06095.29611-.44416-3.25411-1.5066-3.43492-1.14497-.10567.21134.6304.78821.82438.73278.93508-.26717-1.18005-1.96936-2.15255-1.96936-.03866,0,1.32007,1.26899,1.32817,1.23657.13232-.5293-1.38451-1.10445-1.64876-1.23657-.50133-.25067-1.64282-1.35612-1.46557-.82438.20862.62585,4.1243,2.7652,1.46557.54959" transform="translate(0 0.000001)" fill="none" stroke="#3f5787" stroke-width="0.5"/><path d="M1.98631,17.2992c0,.15944-.15267.0916-.1832.0916-.34137,0-.03053-1.3129-.1832-1.00758-.20905.4181.64119.93961.64119,1.32817c0,.38166-1.09918-.32059-1.09918-.32059s.48016,1.00467.41219.73278c-.1288-.51518-.50379-2.04241-.50379-1.51137c0,.74457.12345.74992.54959.36639.7718-.69462,3.20883-6.91456,4.3051-6.50346.48517.18194-1.3866.66804-1.09918,1.09918.63117.94675.47767-.44815.91598-.22899.02086.01043-.80356.61323-.50379.87018.1834.1572,3.18007.5623,3.11433.64119-.18895.22675-2.24415.28711-2.24415.0916c0-.47326,1.75441-.33464,1.41977,0-.49946.49946-1.42806.62171-2.06095,1.46557-.31796.42395-.21666,2.07682-.32059,1.55717-.04319-.21597.44501-2.42735.82438-2.42735.07322,0-.24237.88991-.32059.91598-.37235.12412.27479-1.14498.27479-1.14498s-.76671,1.40618-.68698,1.00758c.10006-.50032.5536-1.49691.96178-1.19077.37939.28454-.49404,1.57017-.77858,1.19077-.19327-.25769.58557-.98359.68699-.91598.06638.04425-.98524,1.78804-1.05338,2.01516-.06157.20524.14162.83284.0458.64119-.70547-1.41093.53335-2.25053,1.05338-2.61054.49401-.34201,2.20381-.82438,1.60296-.82438-.45877,0-3.20377.12973-3.43492-.27479-.34452-.60291,2.43477-1.14498,1.74036-1.14498-1.41479,0-4.25103,3.40181-4.5799,4.7173-.19558.78233,1.22661.72616,1.00758,1.41977-.59103,1.87159-.58867-.28375.0916-1.19077" transform="translate(0 0.000001)" fill="none" stroke="#3f5787" stroke-width="0.5"/><path d="M10.87131,14.91765c-.25222-.30266.5678.68699.96178.68699.44035,0-.36639-1.34344-.73278-1.09917-.12051.08034-.10899-.27017-.1374-.41219" fill="none" stroke="#3f5787" stroke-width="0.5"/><path d="M17.55797,21.00892c-.58821-.22058-1.43251-.63361-1.64876-1.28237-.18121-.54364,1.71802,1.28237,1.14497,1.28237-.58452,0-1.32817-1.7295-1.32817-1.14498c0,.30912.68926,1.02588.50379.77858-.45413-.6055-1.69456-2.26824-1.69456-1.51137c0,.04262.65895,1.00758.68699,1.00758.42335,0-.97294-1.14497-.54959-1.14497.36924,0,.38446,1.29204.54959.96178.07847-.15694-.95157-1.56227-.96178-1.55717-.23847.11923.48715.94098.32059.73278-.31702-.39627-1.60665-1.05338-1.09918-1.05338.77854,0,1.73585,1.88227,2.83954.77858.49809-.49809-.42334-2.14698-1.05338-1.83196-.01897.00948,2.09489-.12403,2.42735-.0916c1.31675.12846,2.54943.55587,3.89291.59539.5502.01618,2.17802-.24281,1.64876-.0916-.62708.17917-1.22826-.49054-1.87776-.54959-.88299-.08027-3.18832.8467-2.65634.1374.12075-.161,2.71682-1.36966,2.88534-1.14498.14337.19116-.41599.24068-.64119.32059-.51574.18301-2.05862.64119-1.51137.64119.65538,0,1.43861-.68698,2.15255-.68698.36191,0-.62823.36335-.96178.50379-.10146.04272-.16799-.2099-.27479-.1832-.61065.15266-2.18545,1.17787-1.74036.73278.36288-.36288,1.02553-.26685,1.41977-.59539.36432-.3036,1.48703-1.1489,1.19077-.77858-.21286.26608-1.13726,1.37397-1.46557,1.37397-.91509,0,2.01811-2.10085,2.42735-1.28237.11565.2313-.38095,1.24385-.54959,1.32817-.27615.13807.23503-1.20888.1374-.91598-.20539.61616-.88536,2.42681-.77858,1.78616.10439-.62634.4892-2.20254.87018-1.69456.76846,1.02461-1.61286,1.71684-.41219,1.23657.50712-.20285.64299-2.00432.73278-1.46557.07085.42512-.33401,1.58691-.50379,1.19077-.16047-.37442.63914-1.0086.27479-1.19077-.33026-.16513-.32446.66911-.54959.96178-.55294.71882-1.41381,1.47759-2.06095,2.10675-.25553.24844-.73278,1.13498-.73278.77858c0-1.66242,2.0035-2.20418,2.28995-2.06095.50743.25372-1.25431,1.55717-.68698,1.55717c1.37987,0-2.05241-1.37704-1.83196-.27479.06143.30713,2.93114-.30846,2.93114-.1832c0,.43284-3.08969.96559-3.57232,1.37397-.13591.115-.54959.12213-.45799.27479.28385.47308,2.06201.71822,1.60296.41219-.77484-.51656-3.64178-.76507-2.74794-.50379c1.35095.39489,2.76577,1.29269,4.12191.91598c1.18819-.33005-4.46099-2.05801-3.43492-1.37397.55847.37231,2.05519,1.25355,1.92356.59539-.2131-1.06549-2.97693-2.41476-2.97693-1.32817c0,.2181,1.28446.65887,1.32817.54959.28966-.72415-1.08857-1.86016-1.78616-1.51137-.38052.19026,1.38124,1.06791,1.37397,1.05338-.22364-.44728-1.28237-1.27866-1.28237-.77858c0,.34544.73278,1.07822.73278.73278c0-.12099-1.22928-.91963-1.23657-.91598-.23307.11653.89718,1.29416,1.00758.68699.0495-.27227-1.13031-2.36598-.91598-2.47315.10399-.052.38509.04066.32059.1374-.31159.46738,2.91727,2.27609,3.20593,2.56474.29066.29066-.8322,1.31507-.45799,1.14497.30575-.13898-.33586-1.00758,0-1.00758.38922,0,1.08996.63665.77858.87018-.07776.05832-1.17563-1.32817-1.55717-1.32817-.2852,0,.51278.85276.229.82438-.61803-.0618-.93822-1.05708-1.46557-1.14497-.03367-.00561.09537-.07973.0916-.0458-.06319.56873.82686,1.84513.27479,1.69456-.56925-.15525-.88502-.99519-1.37397-1.19077-.40885-.16354.29244,1.09917.73278,1.09917.34307,0-.26414-1.06048-.54959-.87018-.34694.23129.85073,1.37627.50379,1.14497-.47016-.31344-1.27596-1.84754-1.05338-1.32817.1552.36212.96557,1.24036.68699.96178-.3541-.3541-1.07434-1.66585-.91598-1.19077.08862.26587.14632.64416.41219.73278.58382.19461-.36554-1.87818-.91598-1.60296-.39315.19657.72172,1.58821.45799,1.23657-.26905-.35873-.92911-1.91539-1.32817-2.01515-.32784-.08196.64118,1.06864.32059.96178-.64694-.21565-.63645-.89704-.68698-1.09918-.12954-.51816.44671,1.75164.82438,1.37397.21509-.21509-.05971-1.08527-.27479-.87018-.75795.75795,1.1198,3.3685,1.87776,2.61054.01925-.01925-.63105-1.21536-.50379-1.23657.2009-.03348,1.53113,1.3542,1.74036,1.14497.35733-.35733-.97802-1.12579-1.00758-1.00758-.23211.92846,4.64183.89121,5.72487.45799.39926-.1597.85568-1.19077,1.28237-1.19077.58132,0-1.26683,1.64438-.68698,1.60296c1.12812-.08058,2.8092-1.13076,3.84711-1.46557.69025-.22266-1.15249,1.09917-1.87776,1.09917-.87326,0,2.40435-2.31855,1.55717-2.10675-.70735.17684-1.46382,1.49182-2.01515,1.87776-.69544.48681,1.63552-.79789,2.01516-1.55717.47556-.95113-2.13687,3.02398-2.47314,2.01516-.11923-.3577.97244-.96178.59539-.96178-.91458,0-1.49503,1.05908-2.28995,1.51137-.55982.31852-1.85244,1.61861-1.64876,1.00758.33339-1.00017,1.75971-1.67337,2.56474-2.15255.63971-.38078,2.65362-1.34663,1.96936-1.05338-1.07039.45874-2.10531.87806-3.20593,1.28237-.45542.1673-1.17475,1.05566-1.32817.59539-.20731-.62192,2.11055-1.45702,1.74036-.91598-1.40245,2.04974-1.16527.21117.77858-.27479.53029-.13257-1.08372,1.45068-1.32817.96178-.21087-.42175,1.44745-1.10873,1.23657-.68698-.25931.51862-1.19077,1.03497-1.19077.0458c0-.36288-1.07249.76921-1.00758.41219.01516-.08337.68809-1.37397.87018-1.37397.25574,0-.77124,1.29705-.82438,1.19077-.19846-.39692.79385-1.5877.59539-1.19077-.93761,1.87521-.68265.10614.22899-.0458.67294-.11216-.66632,1.3917-1.32817,1.55716-.54639.1366,1.47918-1.41977.91598-1.41977-.43234,0-1.11,1.3215-.87018.96178.28302-.42453.96178-1.701.96178-1.19077c0,.27522-.66942.86318-.45799.68699.25721-.21434.96953-.92374.73278-.68698-.58012.58012-2.32048,2.32048-1.74036,1.74036.26694-.26694,2.25227-2.21177,2.38155-2.06095.38234.44607-.61756,2.17906-.73278,1.60296-.15302-.76508,1.00154-2.77209,1.19077-2.01515.10903.43613-1.62074,2.93113-1.96936,2.93113-.20804,0,.87018-2.61054.87018-2.61054s-.63931,1.81135-.59539,1.32817c.03035-.33382.40654-1.63621.73278-1.83196.60061-.36036-.73278,2.66978-.73278,1.96936c0-.22839.2496-1.45549.50379-1.55717.63675-.2547-.59539,2.65515-.59539,1.96936c0-.76575.47089-2.72987.91598-2.10675.24845.34784-.30226,1.58463,0,1.28237.16533-.16533.57594-1.55717.77858-1.55717.14272,0-.3272,2.15907-.68698,2.01516-.02185-.00874-1.23563,2.60625-1.83196,2.42735-.31498-.09449-1.19605-.53874-.91598-.36639.35918.22103,2.8266-.01766,2.79374-.0916-.21413-.4818-3.03839-.55441-3.38912-.32059-.5341.35607,2.56154.16249,1.92356.0916-.09596-.01066-.31797.17796-.27479.0916.24244-.48488-2.11726-.44623-1.60296-.27479.33559.11186,1.97993.53901,2.28995.22899.79275-.79275-3.69785-1.42997-3.34333-.36639.07742.23227,2.05309.42954,2.19835.32059.48623-.36467-1.35639-.79616-1.78616-.36639-.14683.14683.68131.00584.59539-.1832-.24991-.5498-1.88554-1.21413-1.69456-.64119.03487.10461.75676.81239.91598.73278.24917-.12459-1.08304-.24086-.82438-.1374.68581.27433,2.54994,1.2779,2.10675.68699-.17112-.22816-.67765-.47355-.82438-.229-.09865.16442,1.14761.5631,1.23657.50379.15341-.10227-1.73809-.80035-1.78616-.82438-.15266-.07633.30533-.30533.22899-.45799" transform="translate(.000001 0)" fill="none" stroke="#3f5787" stroke-width="0.5"/><path d="M23.64923,14.45966c-.0794.18526-.85429,1.34936-.87018,1.32817-.33062-.44083.71161-2.03104.73278-2.01515.61914.46436-.40582,2.7717-.87018,2.15255-.30143-.40191,1.01148-1.65267,1.19077-1.83196.60538-.60538-.86641,1.62164-1.64876,1.96936-.53122.2361.35023-1.77134.87018-1.51137.26232.13116-1.26801,1.55853-.1374-.1374" transform="translate(0 0.000001)" fill="none" stroke="#3f5787" stroke-width="0.5"/><path d="M13.80245,19.31436c-.14362.86173.75796.93601.59541.73282" transform="translate(0 0.000001)" fill="none" stroke="#3f5787" stroke-width="0.5"/><path d="M22.32106,17.89459c.10162-.0127.27479-.03499.27479-.1374" fill="none" stroke="#3f5787" stroke-width="0.5"/><path d="M14.62683,20.09294c-.11689.04676-1.19077-.01023-1.19077-.77858c0-.39956.69803,1.24923.82438.87018.12855-.38564-.97442-1.29501-.68698-1.00758.30874.30874.47366.70788.73278,1.05338" fill="none" stroke="#3f5787" stroke-width="0.5"/><path d="M21.72567,15.51304c-1.00109.40044-.10025-.48323.0458-.36639.51578.41263-1.04418.83316-1.64876,1.09918-.19006.08363.62475-.38875.59539-.1832-.13965.97754,4.3115,1.57637,4.12191,1.00758-.06604-.19813-1.4431.77858-1.55717.77858-.14075,0,.17137-.41606.27479-.32059.21578.19918.14954.90991.41219.77858.42173-.21087.48017-4.18159,1.46557-3.98451.51965.10393.57796,2.02042.32059,1.55716-.2159-.38862-.36639-1.72693-.36639-1.28237c0,.62592.36381,2.38709,0,1.87776-.31209-.43692-.32392-2.08679-.41219-1.55717-.06545.39268.26963,1.54684.0916,1.19077-.1955-.39101-.33662-1.71514-.27479-1.28237.07606.53239.48151,2.05044.18319,1.60297-.30403-.45605-.69525-2.04145-.36639-1.60297.40063.53417.36639,2.63707.36639,1.96936c0-.35436-.10887-2.79449.0916-1.19077" transform="translate(.000001 0.000001)" fill="none" stroke="#3f5787" stroke-width="0.5"/><path d="M22.87065,21.05472c-.85407,0-1.71118-.02371-2.56474,0-.33711.00936-1.34315.05804-1.00758.0916.92502.0925,3.66392.13542,3.66392-.1832c0-.50402-1.86776.40219-1.51137.0458.07859-.07859.42.1413.32059.0916-.33026-.16513-1.36027.39849-1.09918.1374.16513-.16513.48673-.25755.68699-.1374.40666.24399,1.67111-.49375,1.41977-.0916-.29839.47742-2.21176.36639-1.64876.36639.43422,0,1.70816-.14384,1.28237-.22899-1.7495-.3499-2.55039.52067-.0916.27479.48988-.04899-1.94995.27127-1.46557.1832.80886-.14706,3.20366-.64119,2.38155-.64119-.24138,0-.92837.229-.68698.229.29937,0,1.67091-.79116,1.83196-.54959.06736.10103-1.15028.50379-1.28237.50379-.71865,0,2.10675.26066,2.10675-.45799c0-.93237-3.56952.65458-2.79374.1374.26796-.17864,1.26443-.01846.96178.0916-.44011.16004-1.21459.00367-1.32817.45799-.154.61602,2.16173.24735,1.87776-.32059-.34469-.68939-2.97934-.0241-2.28995.32059.21886.10943,2.01516-.10721,2.01516-.27479c0-.11056-1.64876-.05741-1.64876.1374c0,.61465,1.59179.12512,1.78616-.45799.01667-.05-.91598-.05-.91598.0916c0,.27522.54916-.0458.82438-.0458.62945,0-1.38687.0129-1.83196.45799-.20167.20167-1.10841.20317-.82438.22899.55567.05052,4.21351-.51024,4.21351-1.19077c0-.51205-2.02028.21825-1.51137.27479.34898.03878.72027-.11104,1.05338,0c.48143.16048-1.96319.51172-1.46557.41219.38864-.07773.79048-.14335,1.14497-.32059.71279-.3564-3.08687.68699-2.28995.68699.25178,0,.73278-.1832.73278-.1832s-1.48144.61126-1.19077.32059c.69937-.69937,2.26959-.34603,2.93114-1.00758.61408-.61408-2.35412-.38452-2.56474.45799-.07035.2814,1.15333-.06292.87018,0-.39766.08837-1.06196-.11166-1.19077.27479-.1307.39211,1.64989-.0916,1.23657-.0916-.008,0-.96178.0916-.96178.0916s1.09918-.20631,1.09918-.27479c0-.41219-1.60525.18434-1.23657,0c1.91814-.95907,3.29147-.23051,2.74794-.36639-.34231-.08558.78164-1.07848,1.00758-1.05338.10443.0116-.8179,1.278-1.19077,1.23657-.41638-.04626,1.63402-1.41819,1.69456-1.23657.12752.38257-1.2987,1.36309-1.55716,1.19077-.39289-.26193,1.30989-1.25485,1.32817-1.23657.15718.15718.64119.40548.64119.1832c0-.81385-2.44154,1.75133-2.24415.96178.2475-.98998,1.55117-2.51668,2.38155-1.92356.7587.54193-2.28441,2.70916-2.15255,1.78616.0497-.34792,1.59085-1.31712,1.87776-1.14497.07535.04521-.92079,1.12992-1.14497.96178-.14355-.10766,2.19462-1.99833,2.61054-1.83196.0294.01176-1.5403,1.46194-1.64876,1.19077-.22705-.56762,1.71336-1.16378.73278-.1832-.36719.36719,1.00837-1.78695.64119-1.41977-.2464.2464-.25739,1.16238-.50379.91598-.22772-.22772-.0916-1.28382-.0916-.96178c0,.14639-.43546,1.50537-.54959,1.41977-.25879-.19409.32059-1.23947.32059-.91598c0,.42803-1.4509,1.37217-1.41977,1.46557.0652.1956,1.42738-.52662,1.41977-.50379-.09036.27109-2.2083,1.41977-2.51894,1.41977-.63203,0,1.06445-.69806,1.51137-1.14497.30418-.30418-1.44915.89957-1.14497.59539.16628-.16628,1.26478-1.00203,1.46557-.91598.17749.07607-.26956.72231-.1832.54959.27858-.55717.78094-1.20778.54959-1.78616-.13713-.34283.39849-1.36027.1374-1.09918-.13294.13294-1.24629,1.88655-1.32817,1.83196-.88926-.59284.71281-3.93285,1.19077-2.97693.20943.41887-.64819,1.75611-.45799,1.32817.21353-.48043.84282-1.92189.68699-1.41977-.30506.98296-.12279,2.55987-1.09918,2.88534-.17778.05926.1793-2.66024.27479-2.56474c2.10967,2.10967-2.00712-.1832-.1832-.1832.92219,0,.50424,3.16036-.32059,2.74794-.69759-.34879-.10924-3.07565.1374-2.33575.10279.30835-.08012,2.38916-.41219,2.61054-.74761.4984-.44052-2.65634.45799-2.65634.85505,0-.33659,3.32952.0458,2.56474.17594-.35187.39451-2.93113.82438-2.93113.08203,0,.08121,2.74794,0,2.74794-.77873,0-.39406-3.03227-.0458-2.33575.22214.44427-.15511,2.30766-.50379,2.65634-.74485.74485-.74485-2.41528,0-3.16013.71776-.71776-.21193,2.0571-.64119,2.97693-.45746.98027-.09626-4.10601.50379-3.20593.51663.77495.61278,3.45232-.0458,2.79374-.35884-.35884-.0983-1.93361.1832-1.51137.40648.60971,0,2.93113,0,2.19835c0-.22849.02251-2.15255.1832-2.15255.77993,0,.1374,3.11568.1374,2.33575c0-.6883.04425-1.37438.0916-2.06095.02111-.30612.03142-1.21687.0916-.91598.01833.09165.03102,2.42735-.0916,2.42735-.68766,0,.39465-2.54721-.0916-2.06095-.53595.53595.08838,2.85051-.36639,2.24415-.09423-.12564-.06193-2.28995,0-2.28995.77873,0,.0458,3.11448.0458,2.33575c0-.84501.00665-1.63265.1374-2.47314.06443-.41422.09643-1.63426.229-1.23657.28087.8426.28721,2.98547,0,3.84712-.10138.30414,0-.64119,0-.96178c0-.74978-.10537-1.65325.1374-2.38155.28982-.86946.0916,3.66443.0916,2.74794c0-.5381-.12772-3.00467.27479-3.20593.58715-.29357,0,2.62581,0,1.96936c0-4.09454.0458.0916.0458.0916s.0916-3.35915.0916-2.51894c0,.91598,0,1.83196,0,2.74794c0,.88545,0-1.77089,0-2.65634c0-1.17551,0,2.35101,0,3.52652c0,1.06908-.0916-3.20593-.0916-3.20593s-.0458,3.54192-.0458,2.65634c0-3.87203.24736,1.0564-.36639,1.46557-.68886.45924-.14662-3.29694-.229-2.47314-.20874,2.08742-.0916,1.11084-.0916-.59539c0-.80912,0-3.23646,0-2.42735c0,1.00765.0458,2.01415.0458,3.02273c0,1.02296-.41168-3.98349.0458-3.06853.54411,1.08822.1374,3.06161.1374,4.25931c0,.53519-.04589-1.06973-.0916-1.60296-.10147-1.18387-.1832-2.38337-.1832-3.57232c0-1.25268.1374,5.00819.1374,3.75552c0-1.07694-.22251-2.28307-.0458-3.34333.17633-1.05797.27479,4.27849.27479,3.20593c0-.73278,0-1.46557,0-2.19835c0-.32059-.14337-1.24853,0-.96178.33066.66133.19699,1.81482.22899,2.51894.01942.42729.0458,1.7101.0458,1.28237c0-.91059.03737-1.89096-.0916-2.79374-.07772-.54406,0,2.19835,0,1.64876c0-.73886.09938-1.80861-.1374-2.51894-.30912-.92736-.0916,3.90866-.0916,2.93113c0-.93125,0-3.72498,0-2.79374c0,.91598,0,3.66392,0,2.74794c0-1.11491.0458-2.22936.0458-3.34333c0-.93137.0458,3.72511.0458,2.79374c0-2.37192.21486-1.56397-.0916.27479-.12551.75308-.0458-1.52648-.0458-2.28995c0-.90071,0,1.80143,0,2.70214c0,1.02841-.50214-3.68558.32059-3.06853.36619.27464.2263,2.80314.27479,3.25173.03788.35041.02248,1.39898.0916,1.05338.15879-.79397.07811-1.61777.0916-2.42735.00661-.39687,0-1.5877,0-1.19077c0,2.46632-1.0814,2.84978-.1374.96178.4506-.9012,0,4.03031,0,3.02273c0-.88243-.19258-1.987.0916-2.83954.24143-.72429-.63707,1.94852.0458,2.28995.80978.40489.02607-1.83162.27479-2.70214.09646-.33762,0,.70225,0,1.05338c0,.67172,0,1.34344,0,2.01516c0,.90071-.40281-1.89652,0-2.70214.437-.874.0458,1.95397.0458,2.93113c0,.76332-.1497-1.54146,0-2.28995.11735-.58677-.04172,1.84109.0916.64119.07531-.67778,0-1.42242,0-2.10675c0-.44272,0,1.77089,0,1.32817c0-.87232.30068-3.33636-.1832-2.61054-.51663.77495.13686,3.70702-.0458,2.79374-.1918-.95901.03108-2.27359-.41219-3.16013-.47108-.94217.47108,4.1023,0,3.16013-.36924-.73849-.1374-3.2988-.1374-2.47315c0,.65805-.04338,2.60208.1374,1.96936.22732-.79563.1374-1.8377.1374-2.65634c0-.90123-.1934,1.84716.0916,2.70214.17406.52219-.36639,1.95409.0916,1.64876.3216-.2144-.1384-1.35937.18319-1.14497.30995.20663.23491,3.20593.41219,3.20593.50471,0,.37156-1.93131.0916-1.51137-.21208.31812-.21486,1.00758-.73278,1.00758-.237,0,.27655-.90482.1832-.68698-.04938.11522-.73448,1.78548-.96178,1.69456-.19898-.07959.02363-1.05191.1374-.82438.29646.59291-2.95228,1.60296-3.34333,1.60296" fill="none" stroke="#3f5787" stroke-width="0.5"/><path d="M22.64165,17.3908c.25625.51249,1.96374-1.10641,1.09918-.45799" transform="translate(.000001 0.000001)" fill="none" stroke="#3f5787" stroke-width="0.5"/><path d="M24.65681,13.72688c.10712.16067.64894.34878.54959.1832" transform="translate(.000001 0)" fill="none" stroke="#3f5787" stroke-width="0.5"/><path d="M27.67954,17.02441c.33839.84596.20091-.27479.36639-.27479.09141,0-.3529-2.50766-.229-2.65634.22732-.27278.77559,1.12057.45799.96178-.17387-.08693-.01356-.66831-.32059-1.28237-.12308-.24616.15171.53242.27479.77858.12589.25178-.1832-1.10588-.1832-.82438c0,.32955.5032.77897.229.96178-.17228.11485-.64412-.64265,0-.32059.5838.2919,1.00643,2.05156.36639,1.92356-.32385-.06477-.83634-.98824-.54959-.82438.57749.32999-.05176,1.97971-.22899,2.01516-.29066.05813-.10747-.92831.1832-.87018.44326.08865-.3203,1.37337.0916.54959.06764-.13528-.10097-1.99871.0458-1.96936.17522.03504.28231.65247.1832.50379-.20359-.30539-.23158-1.40944-.32059-1.05338-.08588.34353.24937,1.3893.1374,1.05338-.0531-.15931.02761-.66943,0-.50379-.10907.65442.08862,2.06841.1832,1.83196.15965-.39913-.5902-2.56993-.36639-2.79374.14402-.14402-.1374-.39171-.1374-.59539c0-1.23004-2.91227-2.12562-3.61812-1.41977-1.53982,1.53982.32059-.0916.32059-.0916s.13993,1.42061-.27479,1.28237c-.2153-.07177-.42589-.72846-.45799-.50379-.0391.27371-.16755,1.09023-.0916.82438.26283-.9199,1.55709-1.76315.96178-.87018-.26265.39398-.08028-1.53993-.50379-1.32817-.09898.04949-.26258.91598-.41219.91598-.31232,0,.53333-1.0401.54959-1.00758.24138.48276-.5372,1.90253-.77858,1.41977-.2653-.5306,1.29425-1.75441,1.41977-1.55717.51139.80361-.75216,3.55999-1.05338,2.65634-.15614-.46841,1.19609-1.78085,1.28237-1.69456.03414.03414.18452-.05627.1374-.0458-.51388.11419-1.7462,1.15081-1.37397.77858.47803-.47803,2.68598-.31285,2.01516-.229-.39763.0497-.87577-1.30474-.77858-.91598.12078.48313,1.25289,1.17446,1.32817,1.09918.18572-.18572-.7128-.57748-.45799-.64119.86144-.21535,2.18692,1.54113,2.10675,1.55716-.39037.07807-1.0274-.91103-.64119-1.00758.49232-.12308,1.05706,1.41977.54959,1.41977-.62293,0-.78988-1.41916-.96178-2.10675-.06129-.24516.32059.43428.32059.68698c0,.56794-.4996-1.62796-1.00758-1.37397-.48623.24311,1.5512,1.28237,1.00758,1.28237-.54723,0-.35762-1.12741.1832-.0458.16113.32226-.35678-.64898-.64119-.87018-.47742-.37133-1.25882-.66212-1.87776-.54959-.9519.17307,1.30122-.44177,1.14498.1832-.04491.17965-1.22689-.01206-1.41977.0458-.31466.0944-.63039,1.15629-.91598,1.09917-.46887-.09377-.04143-1.52517.41219-1.37397.51205.17068-.24932,1.31392-.77858,1.41977-.09872.01974,1.55716-.29571,1.55716-.68698c0-.30571-.69981.26197-.91598.0458-.22228-.22228.68027-.6021.45799-.82438-.26552-.26552-.14756.88883-.50379,1.00758-.09274.03091-.32675.1832-.229.1832.38166,0-.85767,1.25734-.68698.91598.55148-1.10297,2.38267-2.60942,3.48072-1.51137.27585.27585-1.33217-.81178-1.00758-.59539.13262.08841.30678.1878.45799.1374.27858-.09286,1.07224.41219.77858.41219-.10358,0-2.06304-1.31983-2.24415-.59539-.05088.20352,1.05981.32059,1.23657.32059.42855,0-.85382-.0916-1.28237-.0916-.45824,0,1.64892.3208,1.37397-.0458-.20482-.27309-1.3129-.03053-1.00758-.1832c1.11743-.55871,2.37242,3.45318,2.93113,2.33575.01931-.03862-.0916-.04842-.0916-.0916c0-.84518,1.33042,1.82971.73278,2.42735-.16442.16442-.06681-.74518-.27479-.64119-.17881.08941-.11312,2.72917-.229,2.38155-.18345-.55036.58071-4.70761-1.00758-6.13706-1.25665-1.13098-1.30661,1.21234-.82438,1.69456.21724.21724-.10496-.82438-.41219-.82438-.27009,0,.6808.80582.59539.54959-.12765-.38296-1.09918-1.64528-1.09918-.0916" fill="none" stroke="#3f5787" stroke-width="0.5"/><path d="M24.61101,14.96345c-.4072.3563-.94594.7927-1.19077,1.28237-.11586.23173.36639-.36639.54959-.54959.05835-.05835,2.48268-2.25624,1.69456-2.51894-.25904-.08635-.50379,1.3149-.50379.50379" fill="none" stroke="#3f5787" stroke-width="0.5"/><path d="M26.44297,14.32227c-.03102.18609-.31739,1.64876-.45799,1.64876-.41998,0-.82897-2.88807-.73278-3.02273.04493-.06291.27479,1.6778.27479.87018" fill="none" stroke="#3f5787" stroke-width="0.5"/><path d="M16.36719,18.71897c.07633,0,.15266,0,.229,0" fill="none" stroke="#3f5787" stroke-width="0.5"/><path d="M27.67954,19.54335c-.73045.97393-3.57844,2.82549-4.76309,1.87776" fill="none" stroke="#3f5787" stroke-width="0.5"/><path d="M25.48119,20.87152c.11114,0-.242.17019-.32059.0916-.52096-.52096,1.21895-1.64525,1.83196-1.23657.26946.17964-.91598.91598-.68698.68699.27649-.27649.91598-1.12379.91598-.73278c0,.78336-2.31969,1.98303-1.96936,1.28237.08153-.16305,1.80176-1.22047,1.83196-1.14497.17643.44108-1.03502.78592-1.28237.68699" transform="translate(0 0.000001)" fill="none" stroke="#3f5787" stroke-width="0.5"/><path d="M27.81694,19.17696c0,.80751-.3791.25573-.45799.1374" fill="none" stroke="#3f5787" stroke-width="0.5"/><path d="M25.0232,18.94796c-1.11588,0-2.28978.51291-3.38912.73278" fill="none" stroke="#3f5787" stroke-width="0.5"/><path d="M14.48943,20.87152c.63694.4777,1.42682.73278,2.19835.73278" fill="none" stroke="#3f5787" stroke-width="0.5"/><path d="M15.68021,21.28371c-.11809-.14171-.61447-.37657-.50379-.229" fill="none" stroke="#3f5787" stroke-width="0.5"/><path d="M14.39784,21.00892c-.06262-.15656.09912-.34382.0458-.50379" transform="translate(.000001 0)" fill="none" stroke="#3f5787" stroke-width="0.5"/><path d="M16.50459,21.8791c.41769-.06961-1.55716-1.00758-1.55716-1.00758s2.92772,1.51779,2.06095.82438c-.46707-.37366-1.69456-.01241-1.69456-.91598" transform="translate(.000001 0)" fill="none" stroke="#3f5787" stroke-width="0.5"/><path d="M5.14644,16.33742c0,1.75249.40516-2.10675.96178-2.10675.15222,0-.24892,1.22343-.41219,1.19077-.12878-.02576-.229-.18927-.229-.32059c0-.61862.01093,2.12931-.50379,1.78616-1.2359-.82393,1.72714-1.50153.41219-1.28237-.59324.09887-.16222,1.83895-.73278,1.64876-.41756-.13919.9626-2.51874,1.14497-2.47315.2373.05932-.30318,1.37397-.50379,1.37397-.54419,0,.52691-1.39665.54959-1.37397.10289.10289-.08692,1.05689-.27479.91598-.29362-.22022.01521-1.25697.32059-1.05338.25747.17165-.67196,2.2868-1.00758,2.15255-.0089-.00356.71442-1.37386.82438-1.64876" transform="translate(.000001 0.000001)" fill="none" stroke="#3f5787" stroke-width="0.5"/><path d="M14.94742,20.87152c-.04403-.03303-.05857-.09336-.0916-.1374" fill="none" stroke="#3f5787" stroke-width="0.5"/></svg>
